<svg xmlns="http://www.w3.org/2000/svg" viewBox="0 0 32 32">
  <defs>
    <linearGradient id="g" x1="0%" y1="0%" x2="100%" y2="100%">
      <stop offset="0%" stop-color="#2563eb"/>
      <stop offset="100%" stop-color="#1d4ed8"/>
    </linearGradient>
  </defs>
  <rect width="32" height="32" rx="7" fill="url(#g)"/>
  <path fill="white" d="M16 4.5C11.2 4.5 7.5 8.2 7.5 13C7.5 16.8 9 20.2 10.2 23.8C11 26.4 11.8 28.5 13.2 28.5C14.2 28.5 14.8 27.2 15.3 24.5C15.7 22.2 15.9 20.5 16 20.5C16.1 20.5 16.3 22.2 16.7 24.5C17.2 27.2 17.8 28.5 18.8 28.5C20.2 28.5 21 26.4 21.8 23.8C23 20.2 24.5 16.8 24.5 13C24.5 8.2 20.8 4.5 16 4.5Z"/>
</svg>
