<svg xmlns="http://www.w3.org/2000/svg" viewBox="0 0 180 180">
  <rect width="180" height="180" rx="40" fill="#2563eb"/>
  <path d="M90 30c-8 0-15 7-15 15v15c0 3-2 5-5 5s-5-2-5-5c0-8-7-15-15-15s-15 7-15 15c0 8 7 15 15 15h50c8 0 15-7 15-15s-7-15-15-15c-8 0-15-7-15-15V45c0-8-7-15-15-15z" fill="white"/>
  <path d="M85 80v45c0 3-2 5-5 5s-5-2-5-5V80c0-3 2-5 5-5s5 2 5 5zm20 0v45c0 3-2 5-5 5s-5-2-5-5V80c0-3 2-5 5-5s5 2 5 5zm-40 10v25c0 3-2 5-5 5s-5-2-5-5V90c0-3 2-5 5-5s5 2 5 5zm60 0v25c0 3-2 5-5 5s-5-2-5-5V90c0-3 2-5 5-5s5 2 5 5zm-50 25v10c0 3-2 5-5 5s-5-2-5-5v-10c0-3 2-5 5-5s5 2 5 5zm20 0v10c0 3-2 5-5 5s-5-2-5-5v-10c0-3 2-5 5-5s5 2 5 5zm30 0v10c0 3-2 5-5 5s-5-2-5-5v-10c0-3 2-5 5-5s5 2 5 5z" fill="white"/>
  <circle cx="70" cy="105" r="8" fill="white"/>
  <circle cx="90" cy="105" r="8" fill="white"/>
  <circle cx="110" cy="105" r="8" fill="white"/>
  <circle cx="60" cy="130" r="5" fill="white"/>
  <circle cx="80" cy="130" r="5" fill="white"/>
  <circle cx="100" cy="130" r="5" fill="white"/>
  <circle cx="120" cy="130" r="5" fill="white"/>
</svg>